<svg width="86" height="67" viewBox="0 0 86 67" fill="none" xmlns="http://www.w3.org/2000/svg">
<mask id="path-1-inside-1_567_155" fill="white">
<path fill-rule="evenodd" clip-rule="evenodd" d="M21.9175 49.841C27.5898 48.6284 34.2712 49.0347 41.3335 52.8043C42.4011 53.3741 43.698 53.3123 44.7409 52.6984C50.7119 49.1831 57.9515 48.9725 64.6493 51.0378C64.392 49.8 64.0341 48.5838 63.578 47.4022C62.5093 44.6336 60.9224 42.1098 58.9078 39.9748C56.8933 37.8398 54.4905 36.1354 51.8368 34.959C49.183 33.7826 46.3302 33.1573 43.4413 33.1186C40.5524 33.08 37.6839 33.6288 34.9996 34.7337C32.3153 35.8387 29.8678 37.4781 27.7969 39.5585C25.7259 41.6388 24.072 44.1193 22.9296 46.8583C22.5246 47.8293 22.1867 48.826 21.9175 49.841Z"/>
</mask>
<path fill-rule="evenodd" clip-rule="evenodd" d="M21.9175 49.841C27.5898 48.6284 34.2712 49.0347 41.3335 52.8043C42.4011 53.3741 43.698 53.3123 44.7409 52.6984C50.7119 49.1831 57.9515 48.9725 64.6493 51.0378C64.392 49.8 64.0341 48.5838 63.578 47.4022C62.5093 44.6336 60.9224 42.1098 58.9078 39.9748C56.8933 37.8398 54.4905 36.1354 51.8368 34.959C49.183 33.7826 46.3302 33.1573 43.4413 33.1186C40.5524 33.08 37.6839 33.6288 34.9996 34.7337C32.3153 35.8387 29.8678 37.4781 27.7969 39.5585C25.7259 41.6388 24.072 44.1193 22.9296 46.8583C22.5246 47.8293 22.1867 48.826 21.9175 49.841Z" fill="#FFB800"/>
<path d="M41.3335 52.8043L43.217 49.2755L43.217 49.2755L41.3335 52.8043ZM21.9175 49.841L18.0512 48.8154L16.3801 55.1151L22.7537 53.7526L21.9175 49.841ZM44.7409 52.6984L46.7702 56.1454L46.7702 56.1454L44.7409 52.6984ZM64.6493 51.0378L63.4707 54.8602L69.9445 56.8565L68.5656 50.2236L64.6493 51.0378ZM63.578 47.4022L59.8464 48.8427L59.8464 48.8427L63.578 47.4022ZM58.9078 39.9748L55.9985 42.7199L55.9985 42.7199L58.9078 39.9748ZM51.8368 34.959L53.4578 31.3022L51.8368 34.959ZM43.4413 33.1186L43.3878 37.1183L43.4413 33.1186ZM34.9996 34.7337L36.5222 38.4326L34.9996 34.7337ZM27.7969 39.5585L24.9621 36.7364L24.9621 36.7364L27.7969 39.5585ZM22.9296 46.8583L19.2378 45.3185L19.2378 45.3185L22.9296 46.8583ZM43.217 49.2755C35.2653 45.0312 27.6125 44.5332 21.0813 45.9294L22.7537 53.7526C27.5672 52.7236 33.277 53.0382 39.45 56.3331L43.217 49.2755ZM42.7116 49.2513C42.791 49.2046 42.9767 49.1472 43.217 49.2755L39.45 56.3331C41.8256 57.601 44.6051 57.42 46.7702 56.1454L42.7116 49.2513ZM65.828 47.2154C58.3354 44.905 49.8781 45.0323 42.7116 49.2513L46.7702 56.1454C51.5458 53.334 57.5676 53.04 63.4707 54.8602L65.828 47.2154ZM59.8464 48.8427C60.2235 49.8197 60.5199 50.8265 60.7331 51.852L68.5656 50.2236C68.2641 48.7735 67.8447 47.3478 67.3097 45.9618L59.8464 48.8427ZM55.9985 42.7199C57.653 44.4733 58.9625 46.5527 59.8464 48.8427L67.3097 45.9618C66.0562 42.7145 64.1919 39.7463 61.8171 37.2296L55.9985 42.7199ZM50.2157 38.6158C52.3782 39.5744 54.3444 40.9669 55.9985 42.7199L61.8171 37.2296C59.4421 34.7126 56.6028 32.6964 53.4578 31.3022L50.2157 38.6158ZM43.3878 37.1183C45.7338 37.1496 48.0536 37.6574 50.2157 38.6158L53.4578 31.3022C50.3124 29.9079 46.9267 29.1649 43.4948 29.119L43.3878 37.1183ZM36.5222 38.4326C38.7093 37.5323 41.0418 37.0869 43.3878 37.1183L43.4948 29.119C40.063 29.073 36.6585 29.7252 33.477 31.0348L36.5222 38.4326ZM30.6317 42.3805C32.3321 40.6723 34.3349 39.333 36.5222 38.4326L33.477 31.0348C30.2958 32.3443 27.4035 34.2839 24.9621 36.7364L30.6317 42.3805ZM26.6214 48.3981C27.5662 46.1326 28.9309 44.0889 30.6317 42.3805L24.9621 36.7364C22.5208 39.1887 20.5777 42.106 19.2378 45.3185L26.6214 48.3981ZM25.7838 50.8666C26.0068 50.0259 26.2865 49.201 26.6214 48.3981L19.2378 45.3185C18.7628 46.4576 18.3667 47.6261 18.0512 48.8154L25.7838 50.8666Z" fill="#FFB800" mask="url(#path-1-inside-1_567_155)"/>
<path d="M14.0029 20.665L19.2351 25.8972" stroke="#FFB800" stroke-width="4" stroke-linecap="round" stroke-linejoin="round"/>
<path d="M2.13818 49.3315H9.50742" stroke="#FFB800" stroke-width="4" stroke-linecap="round" stroke-linejoin="round"/>
<path d="M75.8308 49.3315H83.2" stroke="#FFB800" stroke-width="4" stroke-linecap="round" stroke-linejoin="round"/>
<path d="M70.146 27.6659L80.9682 15.6436" stroke="#0F3F62" stroke-width="8" stroke-linecap="round" stroke-linejoin="round"/>
<path d="M83.1998 64.0698H2.13818" stroke="#FFB800" stroke-width="4" stroke-linecap="round" stroke-linejoin="round"/>
<path d="M44.0798 20.6968L43.5745 2" stroke="#FFB800" stroke-width="4" stroke-linecap="round" stroke-linejoin="round"/>
<path d="M70.5217 35.4533C69.6098 36.5482 67.9829 36.6964 66.888 35.7845L61.6015 31.3811C60.5066 30.4691 60.3584 28.8423 61.2703 27.7474V27.7474C62.1823 26.6525 63.8092 26.5043 64.904 27.4162L70.1906 31.8196C71.2854 32.7315 71.4337 34.3584 70.5217 35.4533V35.4533Z" fill="#34A1F0" stroke="#FFB800" stroke-linecap="round" stroke-linejoin="round"/>
<path d="M61.763 31.5153C61.2492 31.0873 60.5555 30.9444 59.9144 31.1345L53.2463 33.1119C52.4996 33.3334 51.9494 33.968 51.8361 34.7385L49.8593 48.1864C49.6418 49.666 51.0659 50.8522 52.4818 50.3708L65.3507 45.9954C66.088 45.7447 66.6128 45.0888 66.6956 44.3144L67.4349 37.3987C67.506 36.7338 67.2401 36.0773 66.7263 35.6494L61.763 31.5153Z" fill="#0F3F62" stroke="#FFB800" stroke-linecap="round" stroke-linejoin="round"/>
<path d="M48.6277 52.2793L57.7344 41.3987Z" fill="#FFB800"/>
<path d="M48.6277 52.2793L57.7344 41.3987" stroke="#FFB800" stroke-linecap="round" stroke-linejoin="round"/>
<path d="M61.7133 39.3093C61.5913 37.9714 60.4079 36.9857 59.07 37.1076C57.7321 37.2295 56.7464 38.413 56.8683 39.7509C56.9903 41.0888 58.1737 42.0745 59.5116 41.9525C60.8495 41.8306 61.8352 40.6472 61.7133 39.3093Z" fill="#0F3F62" stroke="#FFB800" stroke-linecap="round" stroke-linejoin="round"/>
</svg>
