<svg width="283" height="243" viewBox="0 0 283 243" fill="none" xmlns="http://www.w3.org/2000/svg">
<mask id="path-1-inside-1_527_139" fill="white">
<path fill-rule="evenodd" clip-rule="evenodd" d="M77.5618 124.101C92.5005 120.907 110.227 122.186 128.921 132.994C129.969 133.6 131.298 133.553 132.303 132.879C147.752 122.529 167.054 121.622 184.836 127.105C184.19 123.998 183.291 120.944 182.146 117.978C179.464 111.028 175.48 104.692 170.422 99.3322C165.365 93.9725 159.333 89.6939 152.671 86.7407C146.009 83.7875 138.848 82.2176 131.595 82.1205C124.343 82.0235 117.142 83.4012 110.403 86.1751C103.665 88.9489 97.5204 93.0646 92.3214 98.2871C87.1224 103.51 82.9705 109.737 80.1026 116.613C79.0859 119.05 78.2377 121.552 77.5618 124.101Z"/>
</mask>
<path fill-rule="evenodd" clip-rule="evenodd" d="M77.5618 124.101C92.5005 120.907 110.227 122.186 128.921 132.994C129.969 133.6 131.298 133.553 132.303 132.879C147.752 122.529 167.054 121.622 184.836 127.105C184.19 123.998 183.291 120.944 182.146 117.978C179.464 111.028 175.48 104.692 170.422 99.3322C165.365 93.9725 159.333 89.6939 152.671 86.7407C146.009 83.7875 138.848 82.2176 131.595 82.1205C124.343 82.0235 117.142 83.4012 110.403 86.1751C103.665 88.9489 97.5204 93.0646 92.3214 98.2871C87.1224 103.51 82.9705 109.737 80.1026 116.613C79.0859 119.05 78.2377 121.552 77.5618 124.101Z" fill="#FFB800"/>
<path d="M128.921 132.994L124.917 139.92L124.917 139.92L128.921 132.994ZM77.5618 124.101L69.8292 122.049L66.487 134.649L79.2342 131.924L77.5618 124.101ZM132.303 132.879L127.85 126.233L127.85 126.233L132.303 132.879ZM184.836 127.105L182.478 134.75L195.426 138.742L192.668 125.477L184.836 127.105ZM182.146 117.978L189.61 115.097L189.61 115.097L182.146 117.978ZM170.422 99.3322L164.604 104.823L164.604 104.823L170.422 99.3322ZM152.671 86.7407L155.913 79.4271L155.913 79.4271L152.671 86.7407ZM110.403 86.1751L113.448 93.5728L113.448 93.5728L110.403 86.1751ZM92.3214 98.2871L97.991 103.931L92.3214 98.2871ZM80.1026 116.613L87.4861 119.692L87.4861 119.692L80.1026 116.613ZM132.925 126.069C112.412 114.209 92.646 112.695 75.8894 116.277L79.2342 131.924C92.3549 129.119 108.042 130.164 124.917 139.92L132.925 126.069ZM127.85 126.233C129.366 125.218 131.317 125.139 132.925 126.069L124.917 139.92C128.621 142.062 133.23 141.888 136.756 139.526L127.85 126.233ZM187.193 119.46C167.737 113.461 145.792 114.212 127.85 126.233L136.756 139.526C149.711 130.846 166.372 129.783 182.478 134.75L187.193 119.46ZM174.683 120.859C175.67 123.416 176.445 126.051 177.003 128.733L192.668 125.477C191.934 121.945 190.912 118.472 189.61 115.097L174.683 120.859ZM164.604 104.823C168.941 109.419 172.37 114.866 174.683 120.859L189.61 115.097C186.557 107.19 182.019 99.9649 176.241 93.8418L164.604 104.823ZM149.429 94.0543C155.108 96.5719 160.267 100.227 164.604 104.823L176.241 93.8418C170.463 87.7182 163.558 82.8158 155.913 79.4271L149.429 94.0543ZM131.488 90.1198C137.655 90.2023 143.75 91.5369 149.429 94.0543L155.913 79.4271C148.268 76.038 140.04 74.2328 131.702 74.1212L131.488 90.1198ZM113.448 93.5728C119.193 91.2083 125.322 90.0373 131.488 90.1198L131.702 74.1212C123.364 74.0097 115.091 75.5941 107.358 78.7773L113.448 93.5728ZM97.991 103.931C102.449 99.453 107.704 95.9376 113.448 93.5728L107.358 78.7773C99.6255 81.9603 92.5918 86.6762 86.6518 92.643L97.991 103.931ZM87.4861 119.692C89.959 113.763 93.5325 108.41 97.991 103.931L86.6518 92.643C80.7123 98.6093 75.982 105.71 72.7191 113.533L87.4861 119.692ZM85.2943 126.152C85.8778 123.952 86.6096 121.794 87.4861 119.692L72.7191 113.533C71.5622 116.307 70.5976 119.153 69.8292 122.049L85.2943 126.152Z" fill="#FFB800" mask="url(#path-1-inside-1_527_139)"/>
<path d="M57.6929 50.8574L70.8277 63.9922" stroke="#FFB800" stroke-width="8" stroke-linecap="round" stroke-linejoin="round"/>
<path d="M27.9082 122.821H46.4079" stroke="#FFB800" stroke-width="8" stroke-linecap="round" stroke-linejoin="round"/>
<path d="M212.906 122.821H231.405" stroke="#FFB800" stroke-width="8" stroke-linecap="round" stroke-linejoin="round"/>
<path d="M198.634 68.4319L225.802 38.251" stroke="#0F3F62" stroke-width="22" stroke-linecap="round" stroke-linejoin="round"/>
<path d="M231.405 159.82H27.9082" stroke="#FFB800" stroke-width="8" stroke-linecap="round" stroke-linejoin="round"/>
<path d="M133.198 50.9364L131.929 4" stroke="#FFB800" stroke-width="8" stroke-linecap="round" stroke-linejoin="round"/>
<path d="M197.992 89.884C196.578 91.5815 194.056 91.8113 192.359 90.3975L175.281 76.1727C173.584 74.7589 173.354 72.2367 174.768 70.5392L177.938 66.7327C179.352 65.0353 181.874 64.8054 183.572 66.2193L200.649 80.444C202.347 81.8579 202.577 84.3801 201.163 86.0775L197.992 89.884Z" fill="#34A1F0" stroke="#FFB800" stroke-width="2" stroke-linecap="round" stroke-linejoin="round"/>
<path d="M176.348 77.0613C175.834 76.6334 175.14 76.4905 174.499 76.6806L154.36 82.6528C153.614 82.8742 153.063 83.5088 152.95 84.2793L146.988 124.838C146.77 126.317 148.195 127.504 149.61 127.022L188.423 113.826C189.16 113.575 189.685 112.919 189.768 112.145L192.001 91.2583C192.072 90.5934 191.806 89.9369 191.292 89.509L176.348 77.0613Z" fill="#0F3F62" stroke="#FFB800" stroke-width="2" stroke-linecap="round" stroke-linejoin="round"/>
<path d="M144.615 130.221L167.476 102.907Z" fill="#FFB800"/>
<path d="M144.615 130.221L167.476 102.907" stroke="#FFB800" stroke-width="2" stroke-linecap="round" stroke-linejoin="round"/>
<path d="M177.465 97.6607C177.159 94.302 174.188 91.8275 170.83 92.1336C167.471 92.4397 164.996 95.4106 165.302 98.7692C165.609 102.128 168.579 104.602 171.938 104.296C175.297 103.99 177.771 101.019 177.465 97.6607Z" fill="#0F3F62" stroke="#FFB800" stroke-width="2" stroke-linecap="round" stroke-linejoin="round"/>
<path d="M54.6169 198.925C54.6169 201.949 53.5369 203.389 52.2409 203.965C54.7249 204.649 56.6329 206.593 56.6329 210.265C56.6329 215.233 53.1769 217.717 48.5329 217.717H38.4169V192.013H47.0209C51.6649 192.013 54.6169 194.785 54.6169 198.925ZM44.6809 201.913H45.8689C47.4529 201.913 48.3889 201.013 48.3889 199.393C48.3889 197.881 47.4529 196.765 45.8689 196.765H44.6809V201.913ZM44.6809 212.929H47.3809C49.1089 212.929 50.4049 211.885 50.4049 209.833C50.4049 207.853 49.1089 206.701 47.3809 206.701H44.6809V212.929ZM59.7131 217.717V201.157H65.9411V202.309C66.6611 201.589 67.9571 200.725 69.9731 200.725C71.0891 200.725 71.7371 200.941 72.2771 201.193V205.909C71.8091 205.765 71.2331 205.585 70.1171 205.585C68.1371 205.585 65.9411 206.629 65.9411 209.293V217.717H59.7131ZM80.5962 201.157V217.717H74.3682V201.157H80.5962ZM80.8122 194.965C80.8122 196.801 79.3002 198.313 77.4642 198.313C75.6282 198.313 74.1162 196.801 74.1162 194.965C74.1162 193.129 75.6282 191.617 77.4642 191.617C79.3002 191.617 80.8122 193.129 80.8122 194.965ZM96.9009 216.385C95.9289 217.213 94.7049 217.789 91.9689 217.789C86.4249 217.789 83.6889 213.577 83.6889 209.365C83.6889 205.153 86.4249 200.941 91.9689 200.941C94.8489 200.941 95.8929 201.589 96.9009 202.237V201.157H102.409V217.213C102.409 221.749 99.6009 225.061 92.7969 225.061C86.2449 225.061 84.0849 221.785 83.7609 219.121H89.7009C90.0249 219.949 91.0329 220.633 93.2649 220.633C95.8209 220.633 96.9009 219.409 96.9009 217.573V216.385ZM89.8449 209.365C89.8449 211.237 91.3929 212.785 93.2649 212.785C95.1369 212.785 96.6849 211.237 96.6849 209.365C96.6849 207.493 95.1369 205.945 93.2649 205.945C91.3929 205.945 89.8449 207.493 89.8449 209.365ZM105.897 217.717V191.077H112.125V203.281C112.953 201.913 114.393 200.833 117.273 200.833C122.025 200.833 124.581 203.281 124.581 207.709V217.717H118.353V209.113C118.353 207.097 117.777 205.693 115.509 205.693C113.421 205.693 112.125 207.745 112.125 209.041V217.717H105.897ZM129.042 206.305H127.026V201.157H129.042V196.333H135.27V201.157H138.762V206.305H135.27V217.717H129.042V206.305ZM170.168 192.013V197.521H165.02V217.717H158.792V197.521H153.644V192.013H170.168ZM173.584 217.717V201.157H179.812V202.309C180.532 201.589 181.828 200.725 183.844 200.725C184.96 200.725 185.608 200.941 186.148 201.193V205.909C185.68 205.765 185.104 205.585 183.988 205.585C182.008 205.585 179.812 206.629 179.812 209.293V217.717H173.584ZM206.419 201.013V217.717H200.911V216.673C200.083 217.285 198.823 218.077 195.943 218.077C190.435 218.077 187.699 213.793 187.699 209.509C187.699 205.225 190.435 200.941 195.943 200.941C198.715 200.941 200.119 201.553 200.911 202.237V201.013H206.419ZM193.855 209.365C193.855 211.237 195.403 212.785 197.275 212.785C199.147 212.785 200.695 211.237 200.695 209.365C200.695 207.493 199.147 205.945 197.275 205.945C195.403 205.945 193.855 207.493 193.855 209.365ZM215.043 209.545C215.043 211.489 216.447 212.533 218.571 212.533C220.551 212.533 221.523 212.065 222.315 211.345V216.889C221.415 217.429 220.119 218.113 217.239 218.113C211.623 218.113 208.815 213.829 208.815 209.545C208.815 205.261 211.623 200.941 217.239 200.941C219.435 200.941 221.235 201.445 222.315 201.913V207.313C221.451 206.809 220.659 206.305 218.571 206.305C216.447 206.305 215.043 207.601 215.043 209.545ZM231.567 207.025L237.759 201.121H244.887L237.399 208.861L246.183 217.717H238.299L231.567 210.913V217.717H225.303V191.077H231.567V207.025Z" fill="#3A3F45"/>
</svg>
